<svg width="1850" height="1850" viewBox="0 0 1850 1850" fill="none" xmlns="http://www.w3.org/2000/svg">
<g clip-path="url(#clip0_92_78)">
<path d="M925.5 1790.68C1382.87 1790.68 1753.65 1411.59 1753.65 943.966C1753.65 476.344 1382.87 97.2522 925.5 97.2522C468.13 97.2522 97.3501 476.333 97.3501 943.966C97.3501 1411.6 468.13 1790.68 925.5 1790.68Z" fill="url(#paint0_linear_92_78)"/>
<path d="M925.5 1756.58C1364.45 1756.58 1720.3 1392.77 1720.3 943.966C1720.3 495.166 1364.45 131.35 925.5 131.35C486.55 131.35 130.7 495.166 130.7 943.966C130.7 1392.77 486.54 1756.58 925.5 1756.58Z" fill="url(#paint1_linear_92_78)" stroke="url(#paint2_linear_92_78)" stroke-width="8" stroke-miterlimit="10"/>
<path d="M1465.75 1496.33C1764.12 1191.27 1764.12 696.664 1465.75 391.606C1167.38 86.5475 683.62 86.5475 385.25 391.606C86.8799 696.664 86.8799 1191.27 385.25 1496.33C683.62 1801.38 1167.38 1801.38 1465.75 1496.33Z" fill="url(#paint3_linear_92_78)" stroke="url(#paint4_linear_92_78)" stroke-width="8" stroke-miterlimit="10"/>
<path d="M1441.17 1471.19C1725.97 1180.01 1725.97 707.921 1441.17 416.737C1156.37 125.553 694.63 125.553 409.83 416.737C125.03 707.921 125.03 1180.01 409.83 1471.19C694.63 1762.38 1156.37 1762.38 1441.17 1471.19Z" fill="url(#paint5_linear_92_78)" stroke="url(#paint6_linear_92_78)" stroke-width="8" stroke-miterlimit="10"/>
<path d="M925.5 1655.55C1309.87 1655.55 1621.47 1336.96 1621.47 943.966C1621.47 550.97 1309.87 232.385 925.5 232.385C541.13 232.385 229.52 550.97 229.52 943.966C229.52 1336.96 541.12 1655.55 925.5 1655.55Z" fill="url(#paint7_linear_92_78)" stroke="url(#paint8_linear_92_78)" stroke-width="8" stroke-miterlimit="10"/>
<path d="M925.5 1622.79C1292.18 1622.79 1589.44 1318.88 1589.44 943.966C1589.44 569.056 1292.18 265.143 925.5 265.143C558.82 265.143 261.55 569.056 261.55 943.966C261.55 1318.88 558.81 1622.79 925.5 1622.79Z" fill="url(#paint9_linear_92_78)" stroke="url(#paint10_linear_92_78)" stroke-width="8" stroke-miterlimit="10"/>
<path d="M1370.93 1399.38C1616.93 1147.86 1616.93 740.076 1370.93 488.551C1124.92 237.037 726.08 237.037 480.07 488.551C234.07 740.066 234.07 1147.86 480.07 1399.38C726.08 1650.89 1124.92 1650.89 1370.93 1399.38Z" fill="url(#paint11_linear_92_78)" stroke="url(#paint12_linear_92_78)" stroke-width="8" stroke-miterlimit="10"/>
<path d="M1347.95 1375.89C1581.26 1137.35 1581.26 750.586 1347.95 512.046C1114.64 273.506 736.36 273.506 503.05 512.046C269.74 750.586 269.74 1137.35 503.05 1375.89C736.36 1614.43 1114.64 1614.43 1347.95 1375.89Z" fill="url(#paint13_linear_92_78)" stroke="url(#paint14_linear_92_78)" stroke-width="8" stroke-miterlimit="10"/>
<path d="M925.5 1517.2C1235.14 1517.2 1486.16 1260.56 1486.16 943.966C1486.16 627.375 1235.14 370.728 925.5 370.728C615.86 370.728 364.83 627.375 364.83 943.966C364.83 1260.56 615.85 1517.2 925.5 1517.2Z" fill="url(#paint15_linear_92_78)" stroke="url(#paint16_linear_92_78)" stroke-width="8" stroke-miterlimit="10"/>
<path d="M1296.98 1323.77C1502.14 1114.01 1502.14 773.918 1296.98 564.159C1091.82 354.4 759.18 354.4 554.02 564.159C348.86 773.918 348.86 1114.01 554.02 1323.77C759.18 1533.53 1091.82 1533.53 1296.98 1323.77Z" fill="url(#paint17_linear_92_78)" stroke="url(#paint18_linear_92_78)" stroke-width="8" stroke-miterlimit="10"/>
<path d="M1272.46 1304.39C1464.07 1108.47 1464.07 790.839 1272.46 594.923C1080.84 399.008 770.16 399.008 578.55 594.923C386.93 790.839 386.93 1108.47 578.55 1304.39C770.17 1500.3 1080.84 1500.3 1272.46 1304.39Z" fill="url(#paint19_linear_92_78)" stroke="url(#paint20_linear_92_78)" stroke-width="8" stroke-miterlimit="10"/>
<path d="M925.5 1410.81C1177.68 1410.81 1382.11 1201.8 1382.11 943.966C1382.11 686.133 1177.68 477.121 925.5 477.121C673.32 477.121 468.88 686.133 468.88 943.966C468.88 1201.8 673.31 1410.81 925.5 1410.81Z" fill="url(#paint21_linear_92_78)" stroke="url(#paint22_linear_92_78)" stroke-width="8" stroke-miterlimit="10"/>
<path d="M1222.07 1247.76C1385.87 1080.28 1385.87 808.772 1222.07 641.3C1058.27 473.828 792.71 473.828 628.91 641.3C465.11 808.772 465.11 1080.28 628.91 1247.76C792.71 1415.22 1058.27 1415.22 1222.07 1247.76Z" fill="url(#paint23_linear_92_78)" stroke="url(#paint24_linear_92_78)" stroke-width="8" stroke-miterlimit="10"/>
<path d="M1197.61 1222.75C1347.9 1069.09 1347.9 819.967 1197.61 666.308C1047.32 512.649 803.66 512.649 653.37 666.308C503.08 819.967 503.08 1069.09 653.37 1222.75C803.66 1376.4 1047.32 1376.4 1197.61 1222.75Z" fill="url(#paint25_linear_92_78)" stroke="url(#paint26_linear_92_78)" stroke-width="8" stroke-miterlimit="10"/>
<path d="M925.5 1299.48C1117.24 1299.48 1272.68 1140.56 1272.68 944.518C1272.68 748.48 1117.24 589.556 925.5 589.556C733.76 589.556 578.32 748.48 578.32 944.518C578.32 1140.56 733.75 1299.48 925.5 1299.48Z" fill="url(#paint27_linear_92_78)" stroke="url(#paint28_linear_92_78)" stroke-width="8" stroke-miterlimit="10"/>
<path d="M925.5 1257.97C1094.82 1257.97 1232.08 1117.63 1232.08 944.518C1232.08 771.402 1094.82 631.066 925.5 631.066C756.18 631.066 618.92 771.402 618.92 944.518C618.92 1117.63 756.18 1257.97 925.5 1257.97Z" fill="url(#paint29_linear_92_78)" stroke="url(#paint30_linear_92_78)" stroke-width="8" stroke-miterlimit="10"/>
<path d="M925.5 1214.18C1071.16 1214.18 1189.25 1093.44 1189.25 944.518C1189.25 795.593 1071.16 674.845 925.5 674.845C779.84 674.845 661.74 795.583 661.74 944.518C661.74 1093.45 779.83 1214.18 925.5 1214.18Z" fill="url(#paint31_linear_92_78)" stroke="url(#paint32_linear_92_78)" stroke-width="8" stroke-miterlimit="10"/>
<path d="M925.5 1172.89C1048.86 1172.89 1148.87 1070.64 1148.87 944.518C1148.87 818.393 1048.86 716.131 925.5 716.131C802.14 716.131 702.12 818.382 702.12 944.518C702.12 1070.65 802.13 1172.89 925.5 1172.89Z" fill="url(#paint33_linear_92_78)" stroke="url(#paint34_linear_92_78)" stroke-width="8" stroke-miterlimit="10"/>
<path d="M962.51 1128.3C1061.81 1107.42 1125.76 1008.18 1105.34 906.658C1084.92 805.132 987.86 739.749 888.56 760.626C789.25 781.504 725.3 880.729 745.72 982.266C766.15 1083.79 863.2 1149.18 962.51 1128.3Z" fill="url(#paint35_linear_92_78)" stroke="url(#paint36_linear_92_78)" stroke-width="8" stroke-miterlimit="10"/>
<path d="M925.5 1093.32C1005.88 1093.32 1071.04 1026.7 1071.04 944.518C1071.04 862.336 1005.88 795.705 925.5 795.705C845.12 795.705 779.95 862.326 779.95 944.518C779.95 1026.71 845.11 1093.32 925.5 1093.32Z" fill="url(#paint37_linear_92_78)" stroke="url(#paint38_linear_92_78)" stroke-width="8" stroke-miterlimit="10"/>
<path d="M925.5 1060.71C988.26 1060.71 1039.14 1008.68 1039.14 944.518C1039.14 880.351 988.26 828.32 925.5 828.32C862.74 828.32 811.85 880.341 811.85 944.518C811.85 1008.69 862.73 1060.71 925.5 1060.71Z" fill="url(#paint39_linear_92_78)" stroke="url(#paint40_linear_92_78)" stroke-width="8" stroke-miterlimit="10"/>
<path d="M937.83 1027.46C982.62 1020.48 1013.41 977.716 1006.59 931.912C999.78 886.118 957.94 854.637 913.15 861.61C868.36 868.573 837.57 911.351 844.38 957.145C851.2 1002.94 893.03 1034.42 937.83 1027.46Z" fill="url(#paint41_linear_92_78)" stroke="url(#paint42_linear_92_78)" stroke-width="8" stroke-miterlimit="10"/>
<path d="M962.52 982.02C982.97 961.122 982.97 927.219 962.52 906.32C942.07 885.412 908.92 885.412 888.47 906.32C868.02 927.219 868.02 961.122 888.47 982.02C908.92 1002.93 942.07 1002.93 962.52 982.02Z" fill="url(#paint43_linear_92_78)" stroke="url(#paint44_linear_92_78)" stroke-width="8" stroke-miterlimit="10"/>
<path d="M949.39 944.538C949.39 931.053 938.7 920.113 925.5 920.113C912.3 920.113 901.61 931.032 901.61 944.538C901.61 958.044 912.29 968.964 925.5 968.964C938.71 968.964 949.39 958.034 949.39 944.538Z" fill="url(#paint45_linear_92_78)" stroke="url(#paint46_linear_92_78)" stroke-width="8" stroke-miterlimit="10"/>
<path d="M925.5 1647.9C1305.75 1647.9 1614 1332.74 1614 943.966C1614 555.194 1305.75 240.032 925.5 240.032C545.252 240.032 237 555.194 237 943.966C237 1332.74 545.252 1647.9 925.5 1647.9Z" stroke="white" stroke-width="28"/>
<path d="M0 944.477L250 943.997" stroke="white" stroke-width="27"/>
<path d="M1600 944.477H1850" stroke="white" stroke-width="28"/>
<path fill-rule="evenodd" clip-rule="evenodd" d="M704.77 927.372L767.43 832.318L770.66 827.41L773.41 832.615L832.62 944.763L882.86 522.802L889.82 522.915L940.69 1102.18L997.25 678.434H1004.18L1053.27 1042.03L1100.86 929.519L1101.77 927.362H1468.65C1458.22 841.683 1387.66 773.58 1300.75 770.758L1104.22 764.378L1110.46 563.443C1113.52 465.22 1037.41 382.291 941.33 379.173C845.25 376.055 764.14 453.871 761.1 552.115L754.86 753.05L558.33 746.67C462.24 743.542 381.13 821.368 378.08 919.602C378 922.199 377.99 924.785 378.01 927.362H704.77V927.372Z" fill="white"/>
<path fill-rule="evenodd" clip-rule="evenodd" d="M1111.96 960.365L1049.83 1107.21L1044.86 1118.96L1043.15 1106.28L1000.8 792.505L941.4 1237.37L934.45 1237.2L884.29 666.39L844.21 1003.3L842.88 1014.46L837.65 1004.56L769.16 874.861L713.8 958.791L712.76 960.365H379.57C390.78 1045.16 460.94 1112.32 547.22 1115.12L743.75 1121.5L737.51 1322.43C734.46 1420.67 810.57 1503.6 906.65 1506.71C1002.73 1509.83 1083.84 1432.02 1086.89 1333.78L1093.13 1132.85L1289.66 1139.23C1385.74 1142.35 1466.85 1064.53 1469.9 966.285C1469.96 964.302 1469.98 962.328 1469.98 960.365H1111.96Z" fill="white"/>
</g>
<defs>
<linearGradient id="paint0_linear_92_78" x1="376.58" y1="106.086" x2="1485.74" y2="1725.7" gradientUnits="userSpaceOnUse">
<stop stop-color="#FF49FF"/>
<stop offset="0.23" stop-color="#920F76"/>
<stop offset="0.49" stop-color="#B50546"/>
<stop offset="0.72" stop-color="#FF4917"/>
<stop offset="0.97" stop-color="#FFA100"/>
</linearGradient>
<linearGradient id="paint1_linear_92_78" x1="376.58" y1="106.086" x2="1485.74" y2="1725.7" gradientUnits="userSpaceOnUse">
<stop stop-color="#FF49FF"/>
<stop offset="0.23" stop-color="#920F76"/>
<stop offset="0.49" stop-color="#B50546"/>
<stop offset="0.72" stop-color="#FF4917"/>
<stop offset="0.97" stop-color="#FFA100"/>
</linearGradient>
<linearGradient id="paint2_linear_92_78" x1="409.83" y1="315.62" x2="1468.06" y2="1549.16" gradientUnits="userSpaceOnUse">
<stop stop-color="#54099A"/>
<stop offset="0.34" stop-color="#1D0638"/>
<stop offset="0.63" stop-color="#280333"/>
<stop offset="0.84" stop-color="#8C142A"/>
<stop offset="1" stop-color="#FFD54D"/>
</linearGradient>
<linearGradient id="paint3_linear_92_78" x1="376.59" y1="106.086" x2="1485.74" y2="1725.7" gradientUnits="userSpaceOnUse">
<stop stop-color="#FF49FF"/>
<stop offset="0.23" stop-color="#920F76"/>
<stop offset="0.49" stop-color="#B50546"/>
<stop offset="0.72" stop-color="#FF4917"/>
<stop offset="0.97" stop-color="#FFA100"/>
</linearGradient>
<linearGradient id="paint4_linear_92_78" x1="429.62" y1="339.728" x2="1447.26" y2="1525.95" gradientUnits="userSpaceOnUse">
<stop stop-color="#54099A"/>
<stop offset="0.34" stop-color="#1D0638"/>
<stop offset="0.63" stop-color="#280333"/>
<stop offset="0.84" stop-color="#8C142A"/>
<stop offset="1" stop-color="#FFD54D"/>
</linearGradient>
<linearGradient id="paint5_linear_92_78" x1="376.59" y1="106.086" x2="1485.74" y2="1725.7" gradientUnits="userSpaceOnUse">
<stop stop-color="#FF49FF"/>
<stop offset="0.23" stop-color="#920F76"/>
<stop offset="0.49" stop-color="#B50546"/>
<stop offset="0.72" stop-color="#FF4917"/>
<stop offset="0.97" stop-color="#FFA100"/>
</linearGradient>
<linearGradient id="paint6_linear_92_78" x1="451.95" y1="366.935" x2="1423.74" y2="1499.72" gradientUnits="userSpaceOnUse">
<stop stop-color="#54099A"/>
<stop offset="0.34" stop-color="#1D0638"/>
<stop offset="0.63" stop-color="#280333"/>
<stop offset="0.84" stop-color="#8C142A"/>
<stop offset="1" stop-color="#FFD54D"/>
</linearGradient>
<linearGradient id="paint7_linear_92_78" x1="376.58" y1="106.086" x2="1485.73" y2="1725.7" gradientUnits="userSpaceOnUse">
<stop stop-color="#FF49FF"/>
<stop offset="0.23" stop-color="#920F76"/>
<stop offset="0.49" stop-color="#B50546"/>
<stop offset="0.72" stop-color="#FF4917"/>
<stop offset="0.97" stop-color="#FFA100"/>
</linearGradient>
<linearGradient id="paint8_linear_92_78" x1="473.35" y1="393.017" x2="1401.22" y2="1474.61" gradientUnits="userSpaceOnUse">
<stop stop-color="#54099A"/>
<stop offset="0.34" stop-color="#1D0638"/>
<stop offset="0.63" stop-color="#280333"/>
<stop offset="0.84" stop-color="#8C142A"/>
<stop offset="1" stop-color="#FFD54D"/>
</linearGradient>
<linearGradient id="paint9_linear_92_78" x1="376.58" y1="106.086" x2="1485.73" y2="1725.7" gradientUnits="userSpaceOnUse">
<stop stop-color="#FF49FF"/>
<stop offset="0.23" stop-color="#920F76"/>
<stop offset="0.49" stop-color="#B50546"/>
<stop offset="0.72" stop-color="#FF4917"/>
<stop offset="0.97" stop-color="#FFA100"/>
</linearGradient>
<linearGradient id="paint10_linear_92_78" x1="493.94" y1="418.107" x2="1379.57" y2="1450.45" gradientUnits="userSpaceOnUse">
<stop stop-color="#54099A"/>
<stop offset="0.34" stop-color="#1D0638"/>
<stop offset="0.63" stop-color="#280333"/>
<stop offset="0.84" stop-color="#8C142A"/>
<stop offset="1" stop-color="#FFD54D"/>
</linearGradient>
<linearGradient id="paint11_linear_92_78" x1="376.59" y1="106.086" x2="1485.74" y2="1725.7" gradientUnits="userSpaceOnUse">
<stop stop-color="#FF49FF"/>
<stop offset="0.23" stop-color="#920F76"/>
<stop offset="0.49" stop-color="#B50546"/>
<stop offset="0.72" stop-color="#FF4917"/>
<stop offset="0.97" stop-color="#FFA100"/>
</linearGradient>
<linearGradient id="paint12_linear_92_78" x1="515.82" y1="444.741" x2="1356.6" y2="1424.84" gradientUnits="userSpaceOnUse">
<stop stop-color="#54099A"/>
<stop offset="0.34" stop-color="#1D0638"/>
<stop offset="0.63" stop-color="#280333"/>
<stop offset="0.84" stop-color="#8C142A"/>
<stop offset="1" stop-color="#FFD54D"/>
</linearGradient>
<linearGradient id="paint13_linear_92_78" x1="376.59" y1="106.086" x2="1485.74" y2="1725.7" gradientUnits="userSpaceOnUse">
<stop stop-color="#FF49FF"/>
<stop offset="0.23" stop-color="#920F76"/>
<stop offset="0.49" stop-color="#B50546"/>
<stop offset="0.72" stop-color="#FF4917"/>
<stop offset="0.97" stop-color="#FFA100"/>
</linearGradient>
<linearGradient id="paint14_linear_92_78" x1="536.7" y1="470.199" x2="1334.57" y2="1400.25" gradientUnits="userSpaceOnUse">
<stop stop-color="#54099A"/>
<stop offset="0.34" stop-color="#1D0638"/>
<stop offset="0.63" stop-color="#280333"/>
<stop offset="0.84" stop-color="#8C142A"/>
<stop offset="1" stop-color="#FFD54D"/>
</linearGradient>
<linearGradient id="paint15_linear_92_78" x1="376.58" y1="106.086" x2="1485.73" y2="1725.7" gradientUnits="userSpaceOnUse">
<stop stop-color="#FF49FF"/>
<stop offset="0.23" stop-color="#920F76"/>
<stop offset="0.49" stop-color="#B50546"/>
<stop offset="0.72" stop-color="#FF4917"/>
<stop offset="0.97" stop-color="#FFA100"/>
</linearGradient>
<linearGradient id="paint16_linear_92_78" x1="560.32" y1="499.011" x2="1309.7" y2="1372.51" gradientUnits="userSpaceOnUse">
<stop stop-color="#54099A"/>
<stop offset="0.34" stop-color="#1D0638"/>
<stop offset="0.63" stop-color="#280333"/>
<stop offset="0.84" stop-color="#8C142A"/>
<stop offset="1" stop-color="#FFD54D"/>
</linearGradient>
<linearGradient id="paint17_linear_92_78" x1="376.59" y1="106.086" x2="1485.74" y2="1725.71" gradientUnits="userSpaceOnUse">
<stop stop-color="#FF49FF"/>
<stop offset="0.23" stop-color="#920F76"/>
<stop offset="0.49" stop-color="#B50546"/>
<stop offset="0.72" stop-color="#FF4917"/>
<stop offset="0.97" stop-color="#FFA100"/>
</linearGradient>
<linearGradient id="paint18_linear_92_78" x1="583.04" y1="526.667" x2="1285.82" y2="1345.88" gradientUnits="userSpaceOnUse">
<stop stop-color="#54099A"/>
<stop offset="0.34" stop-color="#1D0638"/>
<stop offset="0.63" stop-color="#280333"/>
<stop offset="0.84" stop-color="#8C142A"/>
<stop offset="1" stop-color="#FFD54D"/>
</linearGradient>
<linearGradient id="paint19_linear_92_78" x1="376.59" y1="111.781" x2="1485.74" y2="1731.39" gradientUnits="userSpaceOnUse">
<stop stop-color="#FF49FF"/>
<stop offset="0.23" stop-color="#920F76"/>
<stop offset="0.49" stop-color="#B50546"/>
<stop offset="0.72" stop-color="#FF4917"/>
<stop offset="0.97" stop-color="#FFA100"/>
</linearGradient>
<linearGradient id="paint20_linear_92_78" x1="605.33" y1="559.517" x2="1262.36" y2="1325.4" gradientUnits="userSpaceOnUse">
<stop stop-color="#54099A"/>
<stop offset="0.34" stop-color="#1D0638"/>
<stop offset="0.63" stop-color="#280333"/>
<stop offset="0.84" stop-color="#8C142A"/>
<stop offset="1" stop-color="#FFD54D"/>
</linearGradient>
<linearGradient id="paint21_linear_92_78" x1="376.58" y1="106.086" x2="1485.74" y2="1725.7" gradientUnits="userSpaceOnUse">
<stop stop-color="#FF49FF"/>
<stop offset="0.23" stop-color="#920F76"/>
<stop offset="0.49" stop-color="#B50546"/>
<stop offset="0.72" stop-color="#FF4917"/>
<stop offset="0.97" stop-color="#FFA100"/>
</linearGradient>
<linearGradient id="paint22_linear_92_78" x1="627.21" y1="580.497" x2="1239.35" y2="1294.03" gradientUnits="userSpaceOnUse">
<stop stop-color="#54099A"/>
<stop offset="0.34" stop-color="#1D0638"/>
<stop offset="0.63" stop-color="#280333"/>
<stop offset="0.84" stop-color="#8C142A"/>
<stop offset="1" stop-color="#FFD54D"/>
</linearGradient>
<linearGradient id="paint23_linear_92_78" x1="376.33" y1="106.26" x2="1485.47" y2="1725.88" gradientUnits="userSpaceOnUse">
<stop stop-color="#FF49FF"/>
<stop offset="0.23" stop-color="#920F76"/>
<stop offset="0.49" stop-color="#B50546"/>
<stop offset="0.72" stop-color="#FF4917"/>
<stop offset="0.97" stop-color="#FFA100"/>
</linearGradient>
<linearGradient id="paint24_linear_92_78" x1="651.11" y1="610.198" x2="1214.2" y2="1266.54" gradientUnits="userSpaceOnUse">
<stop stop-color="#54099A"/>
<stop offset="0.34" stop-color="#1D0638"/>
<stop offset="0.63" stop-color="#280333"/>
<stop offset="0.84" stop-color="#8C142A"/>
<stop offset="1" stop-color="#FFD54D"/>
</linearGradient>
<linearGradient id="paint25_linear_92_78" x1="376.33" y1="106.26" x2="1485.47" y2="1725.88" gradientUnits="userSpaceOnUse">
<stop stop-color="#FF49FF"/>
<stop offset="0.23" stop-color="#920F76"/>
<stop offset="0.49" stop-color="#B50546"/>
<stop offset="0.72" stop-color="#FF4917"/>
<stop offset="0.97" stop-color="#FFA100"/>
</linearGradient>
<linearGradient id="paint26_linear_92_78" x1="673.34" y1="637.282" x2="1190.8" y2="1240.45" gradientUnits="userSpaceOnUse">
<stop stop-color="#54099A"/>
<stop offset="0.34" stop-color="#1D0638"/>
<stop offset="0.63" stop-color="#280333"/>
<stop offset="0.84" stop-color="#8C142A"/>
<stop offset="1" stop-color="#FFD54D"/>
</linearGradient>
<linearGradient id="paint27_linear_92_78" x1="376.34" y1="106.26" x2="1485.48" y2="1725.88" gradientUnits="userSpaceOnUse">
<stop stop-color="#FF49FF"/>
<stop offset="0.23" stop-color="#920F76"/>
<stop offset="0.49" stop-color="#B50546"/>
<stop offset="0.72" stop-color="#FF4917"/>
<stop offset="0.97" stop-color="#FFA100"/>
</linearGradient>
<linearGradient id="paint28_linear_92_78" x1="697.56" y1="666.769" x2="1165.33" y2="1212.03" gradientUnits="userSpaceOnUse">
<stop stop-color="#54099A"/>
<stop offset="0.34" stop-color="#1D0638"/>
<stop offset="0.63" stop-color="#280333"/>
<stop offset="0.84" stop-color="#8C142A"/>
<stop offset="1" stop-color="#FFD54D"/>
</linearGradient>
<linearGradient id="paint29_linear_92_78" x1="376.34" y1="106.26" x2="1485.48" y2="1725.87" gradientUnits="userSpaceOnUse">
<stop stop-color="#FF49FF"/>
<stop offset="0.23" stop-color="#920F76"/>
<stop offset="0.49" stop-color="#B50546"/>
<stop offset="0.72" stop-color="#FF4917"/>
<stop offset="0.97" stop-color="#FFA100"/>
</linearGradient>
<linearGradient id="paint30_linear_92_78" x1="723.66" y1="698.586" x2="1137.88" y2="1181.41" gradientUnits="userSpaceOnUse">
<stop stop-color="#54099A"/>
<stop offset="0.34" stop-color="#1D0638"/>
<stop offset="0.63" stop-color="#280333"/>
<stop offset="0.84" stop-color="#8C142A"/>
<stop offset="1" stop-color="#FFD54D"/>
</linearGradient>
<linearGradient id="paint31_linear_92_78" x1="376.34" y1="106.259" x2="1485.48" y2="1725.87" gradientUnits="userSpaceOnUse">
<stop stop-color="#FF49FF"/>
<stop offset="0.23" stop-color="#920F76"/>
<stop offset="0.49" stop-color="#B50546"/>
<stop offset="0.72" stop-color="#FF4917"/>
<stop offset="0.97" stop-color="#FFA100"/>
</linearGradient>
<linearGradient id="paint32_linear_92_78" x1="751.2" y1="732.131" x2="1108.91" y2="1149.09" gradientUnits="userSpaceOnUse">
<stop stop-color="#54099A"/>
<stop offset="0.34" stop-color="#1D0638"/>
<stop offset="0.63" stop-color="#280333"/>
<stop offset="0.84" stop-color="#8C142A"/>
<stop offset="1" stop-color="#FFD54D"/>
</linearGradient>
<linearGradient id="paint33_linear_92_78" x1="376.34" y1="106.259" x2="1485.48" y2="1725.88" gradientUnits="userSpaceOnUse">
<stop stop-color="#FF49FF"/>
<stop offset="0.23" stop-color="#920F76"/>
<stop offset="0.49" stop-color="#B50546"/>
<stop offset="0.72" stop-color="#FF4917"/>
<stop offset="0.97" stop-color="#FFA100"/>
</linearGradient>
<linearGradient id="paint34_linear_92_78" x1="777.14" y1="763.745" x2="1081.62" y2="1118.64" gradientUnits="userSpaceOnUse">
<stop stop-color="#54099A"/>
<stop offset="0.34" stop-color="#1D0638"/>
<stop offset="0.63" stop-color="#280333"/>
<stop offset="0.84" stop-color="#8C142A"/>
<stop offset="1" stop-color="#FFD54D"/>
</linearGradient>
<linearGradient id="paint35_linear_92_78" x1="376.38" y1="106.198" x2="1485.51" y2="1725.83" gradientUnits="userSpaceOnUse">
<stop stop-color="#FF49FF"/>
<stop offset="0.23" stop-color="#920F76"/>
<stop offset="0.49" stop-color="#B50546"/>
<stop offset="0.72" stop-color="#FF4917"/>
<stop offset="0.97" stop-color="#FFA100"/>
</linearGradient>
<linearGradient id="paint36_linear_92_78" x1="802.74" y1="794.836" x2="1054.69" y2="1088.52" gradientUnits="userSpaceOnUse">
<stop stop-color="#54099A"/>
<stop offset="0.34" stop-color="#1D0638"/>
<stop offset="0.63" stop-color="#280333"/>
<stop offset="0.84" stop-color="#8C142A"/>
<stop offset="1" stop-color="#FFD54D"/>
</linearGradient>
<linearGradient id="paint37_linear_92_78" x1="376.34" y1="106.26" x2="1485.48" y2="1725.88" gradientUnits="userSpaceOnUse">
<stop stop-color="#FF49FF"/>
<stop offset="0.23" stop-color="#920F76"/>
<stop offset="0.49" stop-color="#B50546"/>
<stop offset="0.72" stop-color="#FF4917"/>
<stop offset="0.97" stop-color="#FFA100"/>
</linearGradient>
<linearGradient id="paint38_linear_92_78" x1="827.16" y1="824.701" x2="1028.97" y2="1059.92" gradientUnits="userSpaceOnUse">
<stop stop-color="#54099A"/>
<stop offset="0.34" stop-color="#1D0638"/>
<stop offset="0.63" stop-color="#280333"/>
<stop offset="0.84" stop-color="#8C142A"/>
<stop offset="1" stop-color="#FFD54D"/>
</linearGradient>
<linearGradient id="paint39_linear_92_78" x1="376.34" y1="106.26" x2="1485.48" y2="1725.88" gradientUnits="userSpaceOnUse">
<stop stop-color="#FF49FF"/>
<stop offset="0.23" stop-color="#920F76"/>
<stop offset="0.49" stop-color="#B50546"/>
<stop offset="0.72" stop-color="#FF4917"/>
<stop offset="0.97" stop-color="#FFA100"/>
</linearGradient>
<linearGradient id="paint40_linear_92_78" x1="847.69" y1="849.699" x2="1007.38" y2="1035.85" gradientUnits="userSpaceOnUse">
<stop stop-color="#54099A"/>
<stop offset="0.34" stop-color="#1D0638"/>
<stop offset="0.63" stop-color="#280333"/>
<stop offset="0.84" stop-color="#8C142A"/>
<stop offset="1" stop-color="#FFD54D"/>
</linearGradient>
<linearGradient id="paint41_linear_92_78" x1="376.34" y1="106.27" x2="1485.47" y2="1725.89" gradientUnits="userSpaceOnUse">
<stop stop-color="#FF49FF"/>
<stop offset="0.23" stop-color="#920F76"/>
<stop offset="0.49" stop-color="#B50546"/>
<stop offset="0.72" stop-color="#FF4917"/>
<stop offset="0.97" stop-color="#FFA100"/>
</linearGradient>
<linearGradient id="paint42_linear_92_78" x1="867.98" y1="874.462" x2="986.003" y2="1012.03" gradientUnits="userSpaceOnUse">
<stop stop-color="#54099A"/>
<stop offset="0.34" stop-color="#1D0638"/>
<stop offset="0.63" stop-color="#280333"/>
<stop offset="0.84" stop-color="#8C142A"/>
<stop offset="1" stop-color="#FFD54D"/>
</linearGradient>
<linearGradient id="paint43_linear_92_78" x1="376.49" y1="106.158" x2="1485.63" y2="1725.75" gradientUnits="userSpaceOnUse">
<stop stop-color="#FF49FF"/>
<stop offset="0.23" stop-color="#920F76"/>
<stop offset="0.49" stop-color="#B50546"/>
<stop offset="0.72" stop-color="#FF4917"/>
<stop offset="0.97" stop-color="#FFA100"/>
</linearGradient>
<linearGradient id="paint44_linear_92_78" x1="887.07" y1="897.333" x2="965.937" y2="989.275" gradientUnits="userSpaceOnUse">
<stop stop-color="#54099A"/>
<stop offset="0.34" stop-color="#1D0638"/>
<stop offset="0.63" stop-color="#280333"/>
<stop offset="0.84" stop-color="#8C142A"/>
<stop offset="1" stop-color="#FFD54D"/>
</linearGradient>
<linearGradient id="paint45_linear_92_78" x1="376.33" y1="106.27" x2="1485.48" y2="1725.87" gradientUnits="userSpaceOnUse">
<stop stop-color="#FF49FF"/>
<stop offset="0.23" stop-color="#920F76"/>
<stop offset="0.49" stop-color="#B50546"/>
<stop offset="0.72" stop-color="#FF4917"/>
<stop offset="0.97" stop-color="#FFA100"/>
</linearGradient>
<linearGradient id="paint46_linear_92_78" x1="905.37" y1="920" x2="946.671" y2="968.144" gradientUnits="userSpaceOnUse">
<stop stop-color="#54099A"/>
<stop offset="0.34" stop-color="#1D0638"/>
<stop offset="0.63" stop-color="#280333"/>
<stop offset="0.84" stop-color="#8C142A"/>
<stop offset="1" stop-color="#FFD54D"/>
</linearGradient>
<clipPath id="clip0_92_78">
<rect width="1850" height="1850" fill="white"/>
</clipPath>
</defs>
</svg>
