<svg xmlns="http://www.w3.org/2000/svg" width="251" height="38" fill="none">
    <path fill="#0D2740" fill-rule="evenodd" d="M85.98 0v16.626H67.579V0H64.27v36.368h3.309v-16.73h18.4v16.73h3.308V0H85.98Zm9.8 21.717h18.194c-.138-2.736-1.017-4.84-2.637-6.313-1.619-1.472-3.704-2.207-6.254-2.207-2.516 0-4.6.736-6.254 2.207-1.655 1.472-2.671 3.577-3.05 6.313Zm9.665 15.378c-2.584 0-4.833-.546-6.746-1.637-1.912-1.091-3.403-2.624-4.471-4.598-1.067-1.975-1.602-4.242-1.602-6.806v-.623c0-2.598.534-4.875 1.602-6.832 1.068-1.956 2.54-3.481 4.42-4.572 1.878-1.09 4.023-1.636 6.435-1.636 2.344 0 4.42.493 6.228 1.48 1.81.987 3.231 2.408 4.265 4.26 1.034 1.854 1.551 4.061 1.551 6.625v1.662h-21.4c.104 3.152 1.06 5.584 2.87 7.299 1.809 1.714 4.091 2.572 6.848 2.572 2.343 0 4.161-.537 5.453-1.61a10.673 10.673 0 0 0 2.972-3.949l2.792 1.247c-.518 1.143-1.232 2.26-2.145 3.35-.914 1.092-2.094 1.993-3.541 2.702-1.448.71-3.292 1.066-5.531 1.066Zm23.173-2.805c2.652 0 4.797-.806 6.435-2.416 1.636-1.611 2.455-3.888 2.455-6.832v-.623h-9.149c-1.792 0-3.282.39-4.471 1.169-1.189.778-1.783 1.982-1.783 3.61 0 1.63.611 2.884 1.835 3.767 1.222.883 2.782 1.324 4.678 1.324Zm-.208 2.805c-1.757 0-3.351-.304-4.78-.91-1.431-.605-2.559-1.497-3.387-2.675-.826-1.177-1.24-2.597-1.24-4.26 0-1.697.414-3.1 1.24-4.208.828-1.108 1.948-1.94 3.36-2.494 1.412-.553 2.981-.83 4.705-.83h9.2V19.69c0-2.043-.587-3.637-1.758-4.78-1.171-1.142-2.877-1.714-5.117-1.714-2.205 0-3.954.545-5.246 1.637-1.293 1.09-2.163 2.554-2.611 4.389l-2.997-.883a11.97 11.97 0 0 1 1.964-4.026c.896-1.196 2.084-2.148 3.566-2.858 1.481-.71 3.257-1.065 5.324-1.065 3.17 0 5.626.831 7.366 2.494 1.739 1.662 2.611 3.983 2.611 6.962v12.26c0 1.04.482 1.559 1.447 1.559h2.429v2.701h-3.308c-1.069 0-1.913-.32-2.533-.96-.621-.641-.931-1.516-.931-2.624v-.364h-.517a11.877 11.877 0 0 1-1.731 2.235c-.706.726-1.628 1.316-2.764 1.766-1.139.45-2.568.675-4.292.675Zm18.179-.728h3.102V0h-3.102v36.367Zm17.362.001c-1.344 0-2.352-.345-3.024-1.038-.672-.693-1.008-1.663-1.008-2.91V13.925h-8.064v-2.806h8.064V1.664h3.102v9.455h8.787v2.806h-8.787v18.08c0 1.038.517 1.558 1.55 1.558h5.893v2.805h-6.513Zm10.399-.001V0h3.102v15.534h.62c.413-.83.99-1.619 1.732-2.364.74-.744 1.706-1.35 2.894-1.819 1.189-.466 2.68-.7 4.472-.7 1.825 0 3.497.381 5.013 1.142 1.516.763 2.73 1.905 3.645 3.43.912 1.524 1.369 3.446 1.369 5.766v15.378h-3.101v-15.17c0-2.77-.69-4.754-2.068-5.949-1.378-1.195-3.223-1.792-5.531-1.792-2.584 0-4.738.85-6.46 2.546-1.725 1.697-2.585 4.278-2.585 7.74v12.625h-3.102Zm27.179 0V0h21.864v3.013h-18.556v13.612h17.109v3.014h-17.109v13.715H223.6v3.013h-22.071Zm23.936.001 10.493-12.831-10.131-12.418h3.877l8.218 10.339h.621l8.218-10.339h3.876l-10.13 12.418 10.492 12.831h-3.928l-8.528-10.754h-.621l-8.529 10.754h-3.928Z" clip-rule="evenodd"/><mask id="a" width="51" height="37" x="0" y="0" maskUnits="userSpaceOnUse" style="mask-type:alpha"><path fill="#0D2740" d="M19.006 36.48H.915l9.046-9.091 9.045-9.092V36.48Zm13.568 0h-9.046v-9.09l9.046-9.092V36.48ZM28.052 9.206l-9.046 9.092V.113h9.046v9.092ZM50.665.113l-18.09 18.184V.113h18.09Z"/></mask><g mask="url(#a)"><path fill="url(#b)" d="M.915.113h49.75V36.48H.915z"/></g><defs><linearGradient id="b" x1="50.665" x2="-1.563" y1=".113" y2="32.482" gradientUnits="userSpaceOnUse"><stop stop-color="#FFD881"/><stop offset="1" stop-color="#FF8A2D"/></linearGradient></defs>
</svg>